<?xml version="1.0" standalone="no"?>
<!DOCTYPE svg PUBLIC "-//W3C//DTD SVG 20010904//EN"
 "http://www.w3.org/TR/2001/REC-SVG-20010904/DTD/svg10.dtd">
<svg version="1.0" xmlns="http://www.w3.org/2000/svg"
 width="326.000000pt" height="326.000000pt" viewBox="0 0 326.000000 326.000000"
 preserveAspectRatio="xMidYMid meet">
<metadata>
Created by potrace 1.14, written by Peter Selinger 2001-2017
</metadata>
<g transform="translate(0.000000,326.000000) scale(0.100000,-0.100000)"
fill="#000000" stroke="none">
<path d="M910 2797 l-725 -242 -3 -886 c-2 -702 1 -889 10 -896 7 -6 112 -47
233 -91 121 -44 326 -120 455 -167 129 -48 264 -97 300 -110 36 -13 156 -57
267 -98 l203 -75 177 65 c98 36 237 86 308 113 628 230 962 354 973 363 9 7
12 194 10 896 l-3 886 -725 242 c-399 133 -732 242 -740 242 -8 0 -341 -109
-740 -242z m937 132 c101 -34 183 -63 181 -64 -2 -1 -87 -33 -190 -70 l-188
-67 -157 56 c-87 31 -173 63 -192 70 -33 13 -33 13 145 73 99 34 188 61 198
62 11 1 102 -27 203 -60z m-462 -156 c102 -36 182 -69 178 -73 -11 -9 -318
-119 -352 -126 -19 -4 -80 14 -202 61 -96 37 -177 70 -182 74 -6 6 339 129
365 131 4 0 91 -30 193 -67z m911 5 c101 -34 184 -64 184 -67 0 -3 -83 -37
-184 -75 -142 -53 -190 -67 -212 -62 -42 11 -338 118 -347 126 -6 6 341 138
367 140 4 0 91 -28 192 -62z m-1444 -132 c62 -24 146 -56 186 -71 39 -15 72
-30 72 -33 0 -7 -372 -141 -413 -149 -14 -3 -97 23 -203 61 -98 37 -185 69
-193 72 -8 2 -11 7 -8 11 6 5 421 149 439 152 3 1 57 -19 120 -43z m1939 -33
c126 -42 228 -77 226 -79 -14 -14 -397 -144 -414 -141 -39 7 -413 142 -413
148 0 3 39 21 88 39 48 19 130 50 182 71 52 21 97 38 99 38 2 1 106 -34 232
-76z m-961 2 c102 -36 188 -69 192 -73 4 -4 -78 -40 -183 -79 l-190 -72 -157
60 c-86 33 -173 66 -192 74 -41 16 -61 6 175 91 94 34 170 63 170 63 0 1 83
-29 185 -64z m1268 -957 l-3 -872 -185 -68 c-102 -38 -246 -90 -320 -117 -74
-27 -196 -72 -270 -99 -420 -156 -502 -186 -577 -213 -45 -16 -84 -29 -87 -29
-3 0 -5 392 -4 872 l3 872 110 43 c61 23 196 73 300 111 258 95 777 286 900
332 55 21 108 38 118 39 16 1 17 -45 15 -871z m-1717 786 c96 -36 180 -69 188
-74 9 -5 0 -12 -30 -22 -24 -9 -117 -43 -206 -78 l-163 -62 -200 72 c-110 40
-200 76 -200 80 0 7 397 148 421 149 9 1 95 -29 190 -65z m944 -6 c113 -40
205 -75 205 -79 0 -4 -51 -25 -112 -47 -62 -23 -152 -55 -200 -73 l-87 -32
-206 79 c-195 75 -204 80 -178 91 74 33 340 132 356 132 9 1 110 -31 222 -71z
m-1868 -19 l203 -73 0 -268 0 -268 -67 26 c-38 14 -115 43 -173 64 -58 21
-124 46 -147 55 l-43 17 0 265 c0 208 3 264 13 261 6 -3 103 -38 214 -79z
m1400 -156 c145 -56 198 -80 187 -86 -39 -22 -372 -140 -394 -140 -22 0 -358
120 -396 141 -8 4 61 36 184 84 108 42 202 77 207 77 6 1 101 -34 212 -76z
m-950 -8 c98 -36 193 -72 211 -80 l32 -15 0 -260 c0 -205 -3 -260 -13 -260 -7
0 -105 34 -217 75 -112 41 -206 75 -207 75 -2 0 -3 119 -3 265 0 156 4 265 9
265 5 0 90 -29 188 -65z m586 -217 l137 -50 0 -264 c0 -145 -4 -264 -9 -264
-4 0 -82 27 -172 61 -90 34 -185 68 -211 76 l-48 15 0 268 0 269 83 -30 c45
-17 144 -53 220 -81z m-968 -227 l130 -48 3 -268 c2 -252 1 -267 -15 -260 -10
4 -103 38 -206 76 -103 37 -192 71 -197 74 -6 4 -10 111 -10 270 l0 265 83
-30 c45 -17 140 -52 212 -79z m401 -147 c173 -65 207 -81 215 -101 9 -25 13
-496 4 -505 -3 -3 -101 30 -218 72 l-212 78 -3 266 c-1 146 0 266 3 266 4 0
99 -34 211 -76z m347 -128 c34 -13 127 -47 206 -77 79 -29 145 -58 147 -64 3
-6 3 -126 2 -267 l-3 -257 -217 81 -218 81 0 264 c0 181 3 263 11 263 6 0 38
-11 72 -24z m-830 -276 c105 -39 198 -73 205 -75 9 -3 12 -66 12 -270 0 -146
-3 -265 -6 -265 -4 0 -101 35 -215 77 l-209 77 0 263 c0 170 4 263 10 263 6 0
97 -32 203 -70z m572 -212 c61 -22 116 -45 123 -51 9 -7 12 -73 12 -268 0
-143 -3 -259 -7 -259 -6 0 -171 59 -353 128 l-75 28 -3 266 -2 267 97 -35 c54
-19 148 -53 208 -76z m410 -151 l200 -73 3 -267 c1 -147 0 -267 -2 -267 -4 0
-313 113 -396 144 l-35 14 -3 267 c-2 251 -1 266 15 261 10 -3 108 -39 218
-79z"/>
<path d="M2848 2422 l-208 -76 0 -268 0 -268 68 26 c37 14 110 41 162 60 52
19 119 44 148 55 l52 21 0 264 c0 145 -3 264 -7 263 -5 0 -101 -35 -215 -77z"/>
<path d="M2367 2245 c-109 -40 -201 -75 -203 -78 -6 -6 -6 -518 0 -524 4 -4
248 81 414 144 9 4 12 67 12 269 0 205 -3 264 -12 263 -7 -1 -102 -34 -211
-74z"/>
<path d="M2060 2131 c-25 -9 -123 -46 -217 -81 l-173 -63 0 -264 c0 -144 4
-263 8 -263 5 0 89 30 188 66 98 36 194 71 212 77 l32 10 0 269 c0 147 -1 268
-2 267 -2 0 -23 -8 -48 -18z"/>
<path d="M2855 1841 l-210 -78 -3 -268 c-2 -252 -1 -267 15 -260 10 4 103 38
208 76 104 38 193 73 198 78 4 4 6 125 5 268 l-3 261 -210 -77z"/>
<path d="M2368 1662 l-208 -77 0 -266 0 -267 213 78 212 78 3 266 c1 146 -1
266 -5 266 -5 -1 -101 -36 -215 -78z"/>
<path d="M1930 1501 c-85 -32 -177 -67 -205 -78 l-50 -19 -3 -262 c-2 -206 0
-262 10 -262 7 0 106 34 221 76 l207 77 0 263 c0 205 -3 264 -12 263 -7 0 -83
-27 -168 -58z"/>
<path d="M2845 1255 l-200 -74 -3 -265 c-1 -146 1 -266 5 -266 4 0 100 35 215
78 l208 77 0 263 c0 203 -3 262 -12 261 -7 0 -103 -33 -213 -74z"/>
<path d="M2440 1105 c-80 -29 -174 -64 -210 -78 l-65 -25 -3 -267 c-2 -252 -1
-267 15 -260 95 37 395 145 403 145 6 0 10 95 10 270 0 149 -1 270 -2 269 -2
0 -68 -25 -148 -54z"/>
<path d="M1885 901 l-210 -77 -3 -267 c-1 -147 0 -267 2 -267 3 0 85 29 183
65 98 36 194 71 213 78 l35 13 3 267 c1 147 -1 267 -5 266 -5 0 -102 -35 -218
-78z"/>
</g>
</svg>
